<?xml version="1.0" encoding="utf-8"?>
<!-- Generator: Adobe Illustrator 25.4.1, SVG Export Plug-In . SVG Version: 6.00 Build 0)  -->
<svg version="1.1" id="Capa_1" xmlns="http://www.w3.org/2000/svg" xmlns:xlink="http://www.w3.org/1999/xlink" x="0px" y="0px"
	 viewBox="0 0 442.7 198.1" style="enable-background:new 0 0 442.7 198.1;" xml:space="preserve">
<style type="text/css">
	.st0{fill:#D84D52;}
	.st1{fill:#191847;}
	.st2{fill:#EB3C46;}
	.st3{fill:#0F69B4;}
</style>
<g>
	<g>
		<path class="st0" d="M383.2,16.5c0-9.1-7.4-16.5-16.5-16.5h-85.8c-9.1,0-16.5,7.4-16.5,16.5v165.1c0,9.1,7.4,16.5,16.5,16.5h85.8
			c9.1,0,16.5-7.4,16.5-16.5v-29.8c1.6-1.2,3.1-2.5,4.6-3.8l3.9,3.9l-6.6,6.6l35.9,35.9c4.9,4.9,12.9,4.9,17.9,0
			c4.9-4.9,4.9-12.9,0-17.9l-35.9-35.9l-6.6,6.6l-3.9-3.9c24.4-26.8,22.5-68.4-4.3-92.8c-1.6-1.5-3.3-2.8-5-4.1V16.5z M434.3,181.2
			c2.3,2.4,2.2,6.2-0.2,8.5c-2.3,2.2-6,2.2-8.4,0l-21.3-21.3l8.5-8.5L434.3,181.2z M408.3,155.1l-8.5,8.5l-5.2-5.2l8.5-8.5
			L408.3,155.1z M271,181.6v-3.3h45.5c-3.4,3.7-3.4,9.5,0,13.2h-35.6C275.4,191.5,271,187,271,181.6z M323.8,188.2
			c-1.8,0-3.3-1.5-3.3-3.3c0-1.8,1.5-3.3,3.3-3.3s3.3,1.5,3.3,3.3C327.1,186.7,325.7,188.2,323.8,188.2z M376.6,181.6
			c0,5.5-4.4,9.9-9.9,9.9h-35.6c3.4-3.7,3.4-9.5,0-13.2h45.5V181.6z M403.1,99c0,32.8-26.6,59.4-59.4,59.4s-59.4-26.6-59.4-59.4
			s26.6-59.4,59.4-59.4C376.4,39.7,403,66.2,403.1,99z M343.6,33c-36.5-0.1-66.1,29.4-66.2,65.9s29.4,66.1,65.9,66.2
			c11.7,0,23.2-3.1,33.3-8.9v15.5H271V26.4h105.6v15.5C366.6,36.1,355.2,33,343.6,33z M271,19.8v-3.3c0-5.5,4.4-9.9,9.9-9.9h85.8
			c5.5,0,9.9,4.4,9.9,9.9v3.3H271z"/>
		<path class="st0" d="M326.2,10.9c-1.3-1.2-3.4-1.2-4.7,0c-0.3,0.3-0.5,0.7-0.7,1.1c-0.2,0.4-0.3,0.8-0.3,1.3
			c0,0.4,0.1,0.9,0.3,1.3c0.2,0.4,0.4,0.8,0.7,1.1c0.3,0.3,0.7,0.5,1.1,0.7c1.2,0.5,2.7,0.3,3.6-0.7c0.3-0.3,0.5-0.7,0.7-1.1
			c0.4-0.8,0.4-1.7,0-2.5C326.7,11.5,326.5,11.2,326.2,10.9z"/>
	</g>
	<g>
		<g>
			<path class="st1" d="M4,26.4c2-3.7,4.9-6.6,8.5-8.6c3.6-2.1,7.8-3.1,12.4-3.1c5.7,0,10.5,1.5,14.5,4.5c4,3,6.7,7.1,8.1,12.2H34.8
				c-1-2-2.3-3.5-4-4.6c-1.7-1-3.7-1.6-5.9-1.6c-3.6,0-6.5,1.2-8.7,3.7c-2.2,2.5-3.3,5.8-3.3,10c0,4.2,1.1,7.5,3.3,10
				c2.2,2.5,5.1,3.7,8.7,3.7c2.2,0,4.2-0.5,5.9-1.6c1.7-1,3.1-2.6,4-4.6h12.8c-1.4,5.2-4.1,9.2-8.1,12.2c-4,3-8.9,4.5-14.5,4.5
				c-4.6,0-8.8-1-12.4-3.1C8.9,58.1,6,55.2,4,51.6S0.9,43.7,0.9,39C0.9,34.3,1.9,30.1,4,26.4z"/>
			<path class="st1" d="M61.9,61.1c-3-1.6-5.3-3.9-7-6.8c-1.7-2.9-2.5-6.4-2.5-10.3c0-3.9,0.9-7.3,2.6-10.3c1.7-3,4.1-5.2,7.1-6.8
				c3-1.6,6.3-2.4,10.1-2.4c3.7,0,7.1,0.8,10.1,2.4c3,1.6,5.3,3.9,7.1,6.8c1.7,3,2.6,6.4,2.6,10.3c0,3.9-0.9,7.3-2.6,10.3
				c-1.7,3-4.1,5.2-7.1,6.8c-3,1.6-6.4,2.4-10.1,2.4C68.2,63.4,64.9,62.7,61.9,61.1z M77.6,50.9c1.6-1.6,2.3-4,2.3-7
				c0-3-0.8-5.4-2.3-7c-1.5-1.6-3.4-2.4-5.6-2.4c-2.3,0-4.1,0.8-5.6,2.4c-1.5,1.6-2.2,4-2.2,7c0,3,0.7,5.4,2.2,7
				c1.5,1.6,3.3,2.4,5.5,2.4C74.1,53.4,76,52.6,77.6,50.9z M80.9,15.3l-16.4,6.9v-8l16.4-7.9V15.3z"/>
			<path class="st1" d="M97.9,33.6c1.5-2.9,3.5-5.2,6-6.8c2.5-1.6,5.4-2.4,8.5-2.4c2.5,0,4.8,0.5,6.8,1.6c2.1,1,3.7,2.4,4.9,4.2
				V12.6h11.6v50.3h-11.6v-5.4c-1.1,1.8-2.6,3.3-4.7,4.3c-2,1.1-4.4,1.6-7,1.6c-3.1,0-6-0.8-8.5-2.4c-2.5-1.6-4.5-3.9-6-6.9
				c-1.5-3-2.2-6.4-2.2-10.3C95.6,40,96.4,36.6,97.9,33.6z M121.6,37.1c-1.6-1.7-3.6-2.5-5.9-2.5s-4.3,0.8-5.9,2.5
				c-1.6,1.7-2.4,3.9-2.4,6.8c0,2.9,0.8,5.2,2.4,6.9c1.6,1.7,3.6,2.5,5.9,2.5s4.3-0.8,5.9-2.5c1.6-1.7,2.4-4,2.4-6.9
				C124.1,41,123.2,38.8,121.6,37.1z"/>
			<path class="st1" d="M144.9,19.2c-1.3-1.2-1.9-2.7-1.9-4.5c0-1.8,0.6-3.3,1.9-4.5c1.3-1.2,3-1.8,5-1.8c2,0,3.6,0.6,4.9,1.8
				c1.3,1.2,1.9,2.7,1.9,4.5c0,1.8-0.6,3.3-1.9,4.5c-1.3,1.2-2.9,1.8-4.9,1.8C147.9,21,146.2,20.4,144.9,19.2z M155.7,25v37.9h-11.6
				V25H155.7z"/>
			<path class="st1" d="M185.6,26.1c2,1.1,3.6,2.5,4.7,4.3V25h11.6v37.9c0,3.5-0.7,6.6-2.1,9.5c-1.4,2.8-3.5,5.1-6.3,6.8
				c-2.8,1.7-6.4,2.5-10.6,2.5c-5.6,0-10.2-1.3-13.7-4c-3.5-2.7-5.5-6.2-6-10.8h11.5c0.4,1.4,1.2,2.6,2.6,3.4c1.4,0.8,3,1.3,5,1.3
				c2.4,0,4.3-0.7,5.7-2.1c1.4-1.4,2.1-3.6,2.1-6.6v-5.4c-1.1,1.8-2.7,3.2-4.7,4.3c-2,1.1-4.3,1.7-7,1.7c-3.1,0-6-0.8-8.5-2.4
				c-2.5-1.6-4.5-3.9-6-6.9c-1.5-3-2.2-6.4-2.2-10.3c0-3.9,0.7-7.3,2.2-10.3c1.5-2.9,3.5-5.2,6-6.8c2.5-1.6,5.4-2.4,8.5-2.4
				C181.2,24.4,183.6,25,185.6,26.1z M187.8,37.1c-1.6-1.7-3.6-2.5-5.9-2.5s-4.3,0.8-5.9,2.5c-1.6,1.7-2.4,3.9-2.4,6.8
				c0,2.9,0.8,5.2,2.4,6.9c1.6,1.7,3.6,2.5,5.9,2.5s4.3-0.8,5.9-2.5c1.6-1.7,2.4-4,2.4-6.9C190.2,41,189.4,38.8,187.8,37.1z"/>
			<path class="st1" d="M217.5,61.1c-3-1.6-5.3-3.9-7-6.8c-1.7-2.9-2.5-6.4-2.5-10.3c0-3.9,0.9-7.3,2.6-10.3c1.7-3,4.1-5.2,7.1-6.8
				c3-1.6,6.3-2.4,10.1-2.4c3.7,0,7.1,0.8,10.1,2.4c3,1.6,5.3,3.9,7.1,6.8c1.7,3,2.6,6.4,2.6,10.3c0,3.9-0.9,7.3-2.6,10.3
				c-1.7,3-4.1,5.2-7.1,6.8c-3,1.6-6.4,2.4-10.1,2.4C223.8,63.4,220.5,62.7,217.5,61.1z M233.2,50.9c1.6-1.6,2.3-4,2.3-7
				c0-3-0.8-5.4-2.3-7c-1.5-1.6-3.4-2.4-5.6-2.4c-2.3,0-4.1,0.8-5.6,2.4c-1.5,1.6-2.2,4-2.2,7c0,3,0.7,5.4,2.2,7
				c1.5,1.6,3.3,2.4,5.5,2.4C229.8,53.4,231.7,52.6,233.2,50.9z"/>
			<path class="st1" d="M42.8,129.3c-3.7,3.5-9.3,5.2-16.7,5.2H12.8v28.1H6.2v-66h19.9c7.4,0,12.9,1.7,16.7,5.2
				c3.7,3.5,5.6,8.1,5.6,13.8C48.4,121.3,46.6,125.8,42.8,129.3z M41.6,115.6c0-4.4-1.2-7.7-3.7-10c-2.5-2.3-6.4-3.4-11.8-3.4H12.8
				v26.6h13.3C36.5,128.8,41.6,124.4,41.6,115.6z"/>
			<path class="st1" d="M107.8,96.6l-21.1,40.3v25.7H80v-25.7L58.7,96.6h7.5l17.2,34.3l17.1-34.3H107.8z"/>
			<path class="st1" d="M186.6,97.5v65.1H180v-52l-23.2,52H152l-23.2-51.8v51.8h-6.6V97.5h7l25.2,56.5l25.2-56.5H186.6z"/>
			<path class="st1" d="M213,102v24.6h25v5.5h-25v25h27.8v5.5h-34.5V96.5h34.5v5.5H213z"/>
		</g>
	</g>
	<g>
		<path class="st2" d="M244.1,192.4H101.8v-11.5h142.3c2.9,0,5.3,2.6,5.3,5.7v0C249.4,189.8,247.1,192.4,244.1,192.4z"/>
		<path class="st3" d="M101.8,192.4H5.3c-2.9,0-5.3-2.6-5.3-5.7v0c0-3.2,2.4-5.7,5.3-5.7h96.5V192.4z"/>
	</g>
	<g>
		<g>
			<path class="st1" d="M306.8,84.5c1.6,0,2.8-1.3,2.8-2.8V65.1h16.6c1.6,0,2.8-1.3,2.8-2.8s-1.3-2.8-2.8-2.8h-19.4
				c-1.6,0-2.8,1.3-2.8,2.8v19.4C304,83.2,305.3,84.5,306.8,84.5z"/>
			<path class="st1" d="M380.4,113.6c-1.6,0-2.8,1.3-2.8,2.8V133H361c-1.6,0-2.8,1.3-2.8,2.8s1.3,2.8,2.8,2.8h19.4
				c1.6,0,2.8-1.3,2.8-2.8v-19.4C383.3,114.9,382,113.6,380.4,113.6z"/>
			<path class="st1" d="M380.4,59.4H361c-1.6,0-2.8,1.3-2.8,2.8s1.3,2.8,2.8,2.8h16.6v16.6c0,1.6,1.3,2.8,2.8,2.8s2.8-1.3,2.8-2.8
				V62.2C383.3,60.7,382,59.4,380.4,59.4z"/>
			<path class="st1" d="M326.2,133h-16.6v-16.6c0-1.6-1.3-2.8-2.8-2.8s-2.8,1.3-2.8,2.8v19.4c0,1.6,1.3,2.8,2.8,2.8h19.4
				c1.6,0,2.8-1.3,2.8-2.8S327.8,133,326.2,133z"/>
			<path class="st1" d="M343.6,107.5c1.6,0,2.8-1.3,2.8-2.8V99c0-1.6-1.3-2.8-2.8-2.8h-25.5c-1.6,0-2.8,1.3-2.8,2.8s1.3,2.8,2.8,2.8
				h22.6v2.8C340.8,106.3,342.1,107.5,343.6,107.5z"/>
			<path class="st1" d="M347.9,121.7h-1.4v-4.2c0-1.6-1.3-2.8-2.8-2.8s-2.8,1.3-2.8,2.8v7.1c0,1.6,1.3,2.8,2.8,2.8h4.2
				c1.6,0,2.8-1.3,2.8-2.8S349.4,121.7,347.9,121.7z"/>
			<path class="st1" d="M369.1,121.7H362c-1.6,0-2.8,1.3-2.8,2.8s1.3,2.8,2.8,2.8h7.1c1.6,0,2.8-1.3,2.8-2.8
				S370.7,121.7,369.1,121.7z"/>
			<path class="st1" d="M360.6,104.7v-2.8h5.7v8.5c0,1.6,1.3,2.8,2.8,2.8s2.8-1.3,2.8-2.8V99c0-1.6-1.3-2.8-2.8-2.8h-11.3
				c-1.6,0-2.8,1.3-2.8,2.8v5.7c0,1.6,1.3,2.8,2.8,2.8S360.6,106.3,360.6,104.7z"/>
			<path class="st1" d="M315.3,73.6v11.3c0,1.6,1.3,2.8,2.8,2.8h11.3c1.6,0,2.8-1.3,2.8-2.8V73.6c0-1.6-1.3-2.8-2.8-2.8h-11.3
				C316.6,70.7,315.3,72,315.3,73.6z M321,76.4h5.7v5.7H321V76.4z"/>
			<path class="st1" d="M357.8,87.7h11.3c1.6,0,2.8-1.3,2.8-2.8V73.6c0-1.6-1.3-2.8-2.8-2.8h-11.3c-1.6,0-2.8,1.3-2.8,2.8v11.3
				C355,86.4,356.2,87.7,357.8,87.7z M360.6,76.4h5.7v5.7h-5.7V76.4z"/>
			<path class="st1" d="M329.5,110.4h-11.3c-1.6,0-2.8,1.3-2.8,2.8v11.3c0,1.6,1.3,2.8,2.8,2.8h11.3c1.6,0,2.8-1.3,2.8-2.8v-11.3
				C332.3,111.6,331,110.4,329.5,110.4z M326.7,121.7H321V116h5.7V121.7z"/>
			<path class="st1" d="M343.6,87.7c1.6,0,2.8-1.3,2.8-2.8V73.6c0-1.6-1.3-2.8-2.8-2.8s-2.8,1.3-2.8,2.8v11.3
				C340.8,86.4,342.1,87.7,343.6,87.7z"/>
		</g>
	</g>
</g>
</svg>
